<svg width="15" height="12" viewBox="0 0 15 12" fill="none" xmlns="http://www.w3.org/2000/svg">
<path d="M12.7177 0.965223C12.7135 0.957144 12.7066 0.950814 12.6982 0.947366C11.7256 0.501156 10.6993 0.182973 9.64495 0.000780454C9.63537 -0.00100044 9.62548 0.000284317 9.61667 0.00445202C9.60786 0.00861971 9.60059 0.0154582 9.5959 0.0239948C9.45615 0.277641 9.32928 0.538177 9.21579 0.80461C8.07922 0.632079 6.92312 0.632079 5.78655 0.80461C5.67231 0.537501 5.54341 0.276899 5.40045 0.0239948C5.39555 0.0156437 5.38824 0.00896273 5.37949 0.0048221C5.37073 0.000681475 5.36093 -0.000726906 5.35137 0.000780454C4.29687 0.182591 3.2705 0.500797 2.29809 0.947391C2.28977 0.95092 2.28274 0.956946 2.27799 0.964636C0.333365 3.86868 -0.199341 6.70131 0.0619865 9.49887C0.0627216 9.50573 0.0648281 9.51237 0.0681807 9.5184C0.0715333 9.52442 0.0760635 9.52971 0.0815018 9.53395C1.21384 10.3724 2.48037 11.0123 3.82705 11.4265C3.83653 11.4294 3.84666 11.4293 3.85607 11.4262C3.86548 11.4231 3.87372 11.4172 3.87968 11.4093C4.16892 11.0157 4.4252 10.599 4.64593 10.1633C4.64896 10.1573 4.6507 10.1508 4.65101 10.1441C4.65133 10.1374 4.65022 10.1307 4.64777 10.1245C4.64531 10.1182 4.64156 10.1126 4.63676 10.1079C4.63197 10.1032 4.62623 10.0996 4.61994 10.0973C4.21579 9.94266 3.82453 9.75625 3.44983 9.53982C3.44302 9.53582 3.43731 9.5302 3.43319 9.52347C3.42906 9.51673 3.42666 9.50909 3.4262 9.50121C3.42573 9.49332 3.42721 9.48545 3.43051 9.47827C3.43381 9.4711 3.43882 9.46485 3.44511 9.46007C3.52373 9.40117 3.60241 9.3399 3.67748 9.27801C3.68415 9.27251 3.69223 9.26899 3.70079 9.26784C3.70935 9.26668 3.71807 9.26794 3.72595 9.27148C6.18078 10.3918 8.83847 10.3918 11.2642 9.27148C11.2722 9.26772 11.281 9.26628 11.2896 9.26733C11.2983 9.26839 11.3065 9.27188 11.3133 9.27742C11.3884 9.33931 11.4671 9.40117 11.5463 9.46007C11.5526 9.4648 11.5577 9.47101 11.561 9.47816C11.5644 9.4853 11.5659 9.49317 11.5655 9.50105C11.5651 9.50893 11.5627 9.51659 11.5587 9.52335C11.5546 9.53012 11.5489 9.53577 11.5422 9.53982C11.1683 9.75807 10.7767 9.94436 10.3715 10.0967C10.3652 10.0991 10.3595 10.1028 10.3547 10.1076C10.3499 10.1123 10.3462 10.118 10.3438 10.1243C10.3414 10.1306 10.3404 10.1373 10.3407 10.144C10.3411 10.1508 10.3429 10.1573 10.346 10.1633C10.5704 10.5966 10.8263 11.0128 11.1116 11.4086C11.1174 11.4167 11.1256 11.4228 11.1351 11.426C11.1445 11.4292 11.1547 11.4294 11.1643 11.4265C12.5134 11.0137 13.7821 10.3736 14.9159 9.53395C14.9214 9.52992 14.926 9.52476 14.9293 9.51881C14.9327 9.51287 14.9348 9.50627 14.9354 9.49946C15.2482 6.26519 14.4116 3.45577 12.7177 0.965223ZM5.01254 7.79545C4.27346 7.79545 3.66447 7.11721 3.66447 6.28425C3.66447 5.45128 4.26164 4.77299 5.01254 4.77299C5.7693 4.77299 6.37239 5.45718 6.36058 6.2842C6.36058 7.11721 5.76338 7.79545 5.01254 7.79545ZM9.99674 7.79545C9.25768 7.79545 8.6487 7.11721 8.6487 6.28425C8.6487 5.45128 9.24587 4.77299 9.99674 4.77299C10.7536 4.77299 11.3566 5.45718 11.3448 6.2842C11.3448 7.11721 10.7536 7.79545 9.99674 7.79545Z" fill="#A4D7FF"/>
</svg>
