<svg width="15" height="15" viewBox="0 0 15 15" fill="none" xmlns="http://www.w3.org/2000/svg">
<path d="M13.6982 4.4269L12.4679 5.65713C12.3425 5.78256 12.1397 5.78256 12.0143 5.65713L9.05206 2.69496C8.92663 2.56953 8.92663 2.36672 9.05206 2.24129L10.2823 1.01105C10.7813 0.512021 11.5926 0.512021 12.0943 1.01105L13.6982 2.6149C14.1999 3.11393 14.1999 3.9252 13.6982 4.4269ZM7.99528 3.29807L0.987416 10.3059L0.421663 13.5483C0.344273 13.9859 0.725889 14.3649 1.16355 14.2901L4.40595 13.7217L11.4138 6.71391C11.5392 6.58849 11.5392 6.38567 11.4138 6.26024L8.45161 3.29807C8.32352 3.17264 8.1207 3.17264 7.99528 3.29807ZM3.72278 9.70544C3.576 9.55867 3.576 9.32383 3.72278 9.17705L7.83249 5.06737C7.97926 4.92059 8.21411 4.92059 8.36088 5.06737C8.50766 5.21414 8.50766 5.44898 8.36088 5.59576L4.25117 9.70544C4.10439 9.85221 3.86955 9.85221 3.72278 9.70544ZM2.7594 11.9498H4.04034V12.9185L2.31907 13.22L1.48912 12.3901L1.79068 10.6688H2.7594V11.9498Z" fill="#F9F9F9"/>
</svg>
