<svg width="200" height="83" viewBox="0 0 200 83" fill="none" xmlns="http://www.w3.org/2000/svg">
<path d="M45.0912 68.919C43.5277 68.8955 41.9742 68.6657 40.4708 68.2355C38.5889 67.6769 36.8094 66.8184 35.201 65.6929C32.9008 64.0799 30.7791 62.2263 28.8719 60.1634L14.5184 45.1744V68.1672H7.19136V29.1259C7.25165 27.3215 6.93506 25.5244 6.26181 23.8493C5.65577 22.5187 4.26144 21.8512 2.07881 21.8466H0.862183V20.2062H7.99105C9.35067 20.1387 10.7075 20.3867 11.9553 20.9307C12.4544 21.212 12.8899 21.5933 13.2345 22.0509C13.5791 22.5084 13.8254 23.0323 13.958 23.5895C14.4045 25.4089 14.5999 27.2808 14.5389 29.1532V43.1922L29.0906 27.8135C30.2525 26.5559 31.4281 25.3393 32.6174 24.1773C33.7799 23.0333 35.1041 22.0661 36.5475 21.3067C38.1159 20.5324 39.8502 20.1546 41.5986 20.2062H45.6039V22.2567C43.6064 22.21 41.619 22.5536 39.7531 23.2683C37.6856 24.2239 35.8397 25.5996 34.333 27.3078L21.0117 41.2716L37.8188 58.7349C39.102 60.0722 40.472 61.3234 41.9198 62.4805C43.2433 63.5495 44.6591 64.4987 46.1507 65.317C47.3358 65.9961 48.6241 66.4763 49.9646 66.7387V68.1945C49.3108 68.4298 48.6387 68.6104 47.9551 68.7345C47.0076 68.8788 46.0494 68.9405 45.0912 68.919Z" fill="#FDFDFD"/>
<path d="M55.0566 68.1945V42.9461C55.1265 41.143 54.8168 39.3453 54.1476 37.6695C53.5461 36.3344 52.1518 35.6691 49.9646 35.6737H49.2401V33.9991H55.4257C56.8343 33.922 58.2408 34.1846 59.5267 34.7647C60.4694 35.2844 61.1963 36.1227 61.5772 37.1295C62.6652 36.1127 63.8861 35.2482 65.2066 34.5596C66.8878 33.6645 68.7703 33.215 70.6745 33.2541C71.5187 33.2566 72.36 33.3529 73.183 33.5412C73.9177 33.6941 74.6146 33.9915 75.2335 34.4161C75.8441 34.8292 76.3649 35.3617 76.7645 35.9813C77.1541 36.5828 77.489 37.1569 77.7829 37.69L74.6525 40.0891C74.068 39.3189 73.2897 38.7175 72.3969 38.3462C71.3444 37.8824 70.2048 37.6494 69.0546 37.6627C67.6655 37.6355 66.2907 37.9475 65.0494 38.5717C63.9383 39.1371 62.9689 39.9454 62.2128 40.9366C62.2626 41.3906 62.2877 41.8469 62.288 42.3036V68.1329L55.0566 68.1945Z" fill="#FDFDFD"/>
<path d="M96.3808 68.919C94.2272 68.9408 92.0897 68.5462 90.0858 67.7571C88.1464 66.9531 86.5253 65.5337 85.4722 63.7176C84.3057 61.8038 83.7224 59.1473 83.7224 55.748V42.9461C83.7923 41.143 83.4826 39.3453 82.8134 37.6695C82.2028 36.3344 80.8085 35.6692 78.6304 35.6737H77.9059V33.9992H84.5221C85.8815 33.9351 87.2376 34.1829 88.4864 34.7237C88.9875 35.0022 89.4247 35.3828 89.7696 35.8407C90.1146 36.2987 90.3596 36.8239 90.4891 37.3825C90.939 39.2013 91.1345 41.0736 91.07 42.9461V55.748C90.9789 57.7547 91.3386 59.7562 92.1226 61.6056C92.6928 62.8949 93.6478 63.9764 94.8566 64.7018C95.9794 65.3245 97.2431 65.6492 98.527 65.645C99.5087 65.6539 100.48 65.4438 101.37 65.0299C102.235 64.616 103.042 64.0897 103.769 63.4647C104.446 62.8806 105.079 62.2479 105.663 61.5714V33.9992H112.935V68.174H108.643L106.093 65.1871H105.731C104.629 66.2341 103.364 67.0951 101.985 67.7365C100.232 68.5519 98.3146 68.9563 96.3808 68.919Z" fill="#FDFDFD"/>
<path d="M136.126 82.7393C133.287 82.7741 130.456 82.4083 127.719 81.6525C125.45 81.0611 123.403 79.8212 121.827 78.0847C120.401 76.4352 119.686 74.2297 119.681 71.4684C119.648 69.9372 120.066 68.43 120.884 67.135C121.701 65.8803 122.764 64.8038 124.008 63.9705C125.266 63.1103 126.649 62.4487 128.109 62.0088C127.315 61.6494 126.614 61.1141 126.058 60.4436C125.426 59.6766 125.1 58.7028 125.142 57.7096C125.117 57.2741 125.179 56.8379 125.323 56.4261C125.467 56.0144 125.692 55.6353 125.983 55.3106C126.51 54.7479 127.11 54.2582 127.767 53.8547C126.086 53.0633 124.652 51.83 123.618 50.2869C122.424 48.5309 121.814 46.4428 121.875 44.3199C121.875 41.5108 122.511 39.3031 123.803 37.7037C125.137 36.0683 126.937 34.8766 128.963 34.2862C131.285 33.5844 133.701 33.2432 136.126 33.2746H150.069V35.1611L144.834 35.9266C146.4 36.7622 147.755 37.9424 148.798 39.3783C149.876 40.8148 150.452 42.5653 150.439 44.3609C150.439 47.1314 149.807 49.314 148.545 50.9088C147.234 52.5379 145.458 53.7298 143.453 54.3263C141.076 55.0278 138.605 55.362 136.126 55.3174C134.251 55.253 132.377 55.4485 130.556 55.8984C129.271 56.288 128.628 56.8894 128.628 57.7165C128.628 58.5435 129.271 59.145 130.556 59.5346C132.377 59.9844 134.251 60.1799 136.126 60.1155C138.924 60.086 141.71 60.4919 144.383 61.3185C146.68 61.9943 148.753 63.2764 150.384 65.0299C151.929 66.8102 152.736 69.1132 152.639 71.4684C152.639 74.2297 151.913 76.4352 150.459 78.0847C148.864 79.8173 146.805 81.0556 144.526 81.6525C141.791 82.4088 138.963 82.7747 136.126 82.7393ZM136.126 79.7592C138.485 79.8697 140.81 79.1623 142.708 77.7566C144.385 76.426 145.221 74.33 145.217 71.4684C145.268 70.4251 145.103 69.3824 144.734 68.4053C144.365 67.4282 143.799 66.5375 143.07 65.7886C141.644 64.3851 139.571 63.5125 136.851 63.1708L132.996 62.8085C131.319 63.4452 129.839 64.5105 128.703 65.8979C127.637 67.2649 127.104 69.0898 127.104 71.4684C127.104 74.3254 127.94 76.4215 129.612 77.7566C131.487 79.1559 133.789 79.8634 136.126 79.7592ZM136.126 52.6244C137.942 52.669 139.703 52.0018 141.034 50.7653C142.364 49.5259 143.032 47.3797 143.036 44.3268C143.036 41.4219 142.353 39.2826 141.068 37.9292C140.435 37.2592 139.667 36.7302 138.816 36.3769C137.964 36.0235 137.048 35.8538 136.126 35.8787C134.327 35.8418 132.587 36.5203 131.287 37.7652C129.956 39.032 129.289 41.2146 129.284 44.3131C129.28 47.4116 129.947 49.5578 131.287 50.7516C132.591 51.9877 134.33 52.6605 136.126 52.6244Z" fill="#FDFDFD"/>
<path d="M173.131 68.9191C170.095 69.0207 167.101 68.1959 164.546 66.5542C162.205 64.9613 160.375 62.7253 159.276 60.1156C158.059 57.2654 157.452 54.1923 157.492 51.0935C157.441 47.9273 158.08 44.7879 159.365 41.8936C160.483 39.3452 162.283 37.155 164.566 35.5644C166.888 34.0096 169.633 33.2099 172.427 33.2747C175.275 33.1741 178.1 33.8122 180.629 35.127C182.817 36.3447 184.572 38.2125 185.652 40.4719C186.845 43.1214 187.416 46.009 187.32 48.9131L187.177 52.2622H165.134C165.134 56.4316 165.97 59.7534 167.642 62.2276C168.367 63.3906 169.382 64.3446 170.588 64.9955C171.794 65.6463 173.148 65.9715 174.518 65.939C176.635 66.0243 178.728 65.4641 180.519 64.3328C182.186 63.1732 183.629 61.7212 184.777 60.0473L186.377 61.2776C185.518 62.8502 184.397 64.2648 183.062 65.4606C181.788 66.5946 180.308 67.4719 178.701 68.0442C176.908 68.6535 175.024 68.9495 173.131 68.9191ZM165.134 49.207H179.679C179.679 44.8372 179.061 41.586 177.826 39.4535C177.315 38.4646 176.535 37.6399 175.577 37.0741C174.618 36.5082 173.519 36.2243 172.406 36.2548C171.72 36.2596 171.042 36.4004 170.411 36.669C169.78 36.9377 169.208 37.3289 168.729 37.82C167.511 39.0788 166.613 40.6119 166.111 42.29C165.417 44.5284 165.087 46.8639 165.134 49.207Z" fill="#FDFDFD"/>
<path d="M169.932 33.4387L170.745 32.9397C171.815 32.3727 172.684 31.4896 173.233 30.4108C173.233 30.4108 174.6 28.9618 174.34 27.916C174.081 26.8703 174.176 26.549 174.381 26.3987C174.586 26.2483 174.19 24.9838 173.466 24.7856C172.741 24.5874 166.173 21.0059 164.956 13.5968C163.739 6.18769 160.172 4.86854 160.172 4.86854C158.87 4.04454 157.313 3.72149 155.79 3.95949C156.047 3.3411 156.485 2.81461 157.046 2.44879C157.607 2.08298 158.265 1.89485 158.934 1.909C158.934 1.909 160.069 1.6356 160.24 1.30068C160.411 0.965771 161.689 0.849579 161.689 0.849579C162.408 0.315893 163.275 0.0192799 164.171 0.000908119C165.066 -0.0174636 165.945 0.243316 166.685 0.747054C166.685 0.747054 168.162 0.494159 171.887 6.01681C171.887 6.01681 177.778 9.2976 181.278 12.9816C181.278 12.9816 186.828 15.4559 188.27 17.0826C188.27 17.0826 190.806 20.5001 190.437 20.5548C190.068 20.6095 190.143 21.375 190.389 21.5527C190.635 21.7304 191.072 21.8671 191.072 22.3387C191.072 22.3387 193.964 24.3345 194.893 25.4828C194.893 25.4828 197.449 26.7951 197.955 27.5333C197.955 27.5333 199.657 28.292 199.842 29.3035C199.842 29.3035 198.68 28.1279 197.887 28.0254C197.887 28.0254 196.561 27.6016 196.52 27.2941C196.284 27.3045 196.05 27.2576 195.836 27.1574C195.665 27.0138 195.037 27.1984 195.378 27.5948C195.482 27.6754 195.566 27.7792 195.623 27.8978C195.68 28.0164 195.709 28.1467 195.707 28.2783C195.707 28.2783 198.796 30.4313 198.748 31.2788C199.042 32.14 198.598 31.4634 198.598 31.4634C198.598 31.4634 197.08 29.6111 195.631 29.2078C195.631 29.2078 194.216 28.5244 194.162 28.1211C194.162 28.1211 193.157 27.875 193.13 27.5948C193.102 27.3146 191.988 27.5948 192.207 27.9434C192.207 27.9434 194.114 29.659 194.162 30.0964C194.162 30.0964 195.624 30.6295 195.713 31.1353C195.713 31.1353 197.613 32.2699 197.764 32.9261C197.764 32.9261 199.418 34.4298 199.862 34.4981C199.862 34.4981 198.092 34.2247 197.566 33.7463C197.039 33.2678 189.808 30.0075 189.555 29.0848C189.555 29.0848 187.969 27.8819 187.115 28.1484C186.261 28.415 182.727 26.18 182.727 26.18C182.727 26.18 180.984 25.3119 180.519 26.6106C180.519 26.6106 180.465 28.3193 179.432 28.7977C179.432 28.7977 178.81 29.5838 178.858 29.905C178.858 29.905 178.264 30.5885 178.298 31.067C178.332 31.5454 177.409 31.9828 177.409 31.9828C177.409 31.9828 177.409 33.2678 177.649 33.5207L175.55 33.5686C175.55 33.5686 176.008 31.4292 176.767 30.9849C176.767 30.9849 176.938 30.5475 177.17 30.527C177.359 30.2745 177.494 29.9861 177.567 29.6795C177.567 29.3582 177.949 29.2078 177.949 29.2078C178.134 28.9649 178.228 28.6652 178.216 28.3603C178.127 27.9912 178.147 26.8224 178.312 26.7473C178.476 26.6721 178.312 25.9954 177.915 25.9886C177.519 25.9817 176.548 25.7494 176.425 26.5354C176.302 27.3214 176.172 27.8135 175.899 27.9502C175.899 27.9502 175.01 30.6022 173.513 31.4429C173.513 31.4429 172.714 32.3041 172.83 32.7415C172.946 33.179 172.96 33.1175 173.11 33.2063L169.932 33.4387Z" fill="#1D1D1B"/>
<path d="M169.905 34.3204C170.947 33.8648 172.032 33.5145 173.144 33.2746C173.144 33.2063 173.09 33.1995 173.09 33.1995L169.952 33.4319C166.022 34.833 169.952 36.9655 169.952 36.9655C169.952 36.9655 167.567 35.2431 169.905 34.3204Z" fill="#1D1D1B"/>
<path d="M163.828 2.30544C164.017 2.30544 164.17 2.15244 164.17 1.9637C164.17 1.77495 164.017 1.62195 163.828 1.62195C163.64 1.62195 163.486 1.77495 163.486 1.9637C163.486 2.15244 163.64 2.30544 163.828 2.30544Z" fill="#EC6467"/>
<path d="M175.475 34.4502C176.347 34.0168 177.341 33.8961 178.291 34.1085C178.291 33.8488 177.608 33.5002 177.608 33.5002L175.509 33.5617C171.579 34.9629 175.55 37.0954 175.55 37.0954C175.55 37.0954 173.151 35.3935 175.475 34.4502Z" fill="#1D1D1B"/>
</svg>
